<svg width="32" height="32" viewBox="0 0 32 32" fill="none" xmlns="http://www.w3.org/2000/svg">
<path d="M16.0364 0H15.9636C7.14714 0 0 7.14713 0 15.9636V16.0364C0 24.8529 7.14714 32 15.9636 32H16.0364C24.8529 32 32 24.8529 32 16.0364V15.9636C32 7.14713 24.8529 0 16.0364 0Z" fill="#007EBB"/>
<path d="M7.63117 10.6373C7.20964 10.246 7 9.7617 7 9.18545C7 8.60919 7.21076 8.10357 7.63117 7.71118C8.05271 7.31991 8.59534 7.12372 9.26016 7.12372C9.92498 7.12372 10.4463 7.31991 10.8667 7.71118C11.2883 8.10245 11.4979 8.59462 11.4979 9.18545C11.4979 9.77628 11.2871 10.246 10.8667 10.6373C10.4452 11.0286 9.9104 11.2248 9.26016 11.2248C8.60991 11.2248 8.05271 11.0286 7.63117 10.6373ZM11.1436 12.8818V24.8777H7.35314V12.8818H11.1436Z" fill="white"/>
<path d="M23.7618 14.0667C24.5881 14.9636 25.0007 16.1946 25.0007 17.7619V24.6657H21.4008V18.2485C21.4008 17.4581 21.1956 16.8437 20.7864 16.4065C20.3772 15.9692 19.8256 15.7495 19.135 15.7495C18.4444 15.7495 17.8928 15.9681 17.4836 16.4065C17.0744 16.8437 16.8692 17.4581 16.8692 18.2485V24.6657H13.248V12.8481H16.8692V14.4154C17.2358 13.8929 17.7303 13.4804 18.3514 13.1765C18.9725 12.8727 19.6709 12.7214 20.4478 12.7214C21.8313 12.7214 22.9367 13.1698 23.7618 14.0667Z" fill="white"/>
</svg>
