<svg width="37" height="32" viewBox="0 0 37 32" fill="none" xmlns="http://www.w3.org/2000/svg">
<path d="M36.5 0.310625L35.5789 6.87075C33.7366 6.7173 32.2397 7.02421 31.0883 7.79147C29.9369 8.52038 29.1309 9.59455 28.6703 11.014C28.2482 12.3951 28.1714 14.0063 28.4401 15.8478H36.5V31.5H20.8407V15.8478C20.8407 10.3235 22.1264 6.14185 24.698 3.30297C27.2695 0.425716 31.2035 -0.571731 36.5 0.310625ZM15.6593 0.310625L14.7382 6.87075C12.8959 6.7173 11.3991 7.02421 10.2476 7.79147C9.09621 8.52038 8.29022 9.59455 7.82965 11.014C7.40747 12.3951 7.3307 14.0063 7.59937 15.8478H15.6593V31.5H0V15.8478C0 10.3235 1.28575 6.14185 3.85726 3.30297C6.42876 0.425716 10.3628 -0.571731 15.6593 0.310625Z" fill="url(#paint0_linear_2232_27349)"/>
<defs>
<linearGradient id="paint0_linear_2232_27349" x1="18.25" y1="0" x2="18.25" y2="31.5" gradientUnits="userSpaceOnUse">
<stop stop-color="#FF0009" stop-opacity="0.25"/>
<stop offset="1" stop-color="#FF0009"/>
</linearGradient>
</defs>
</svg>
